<svg height="49" viewBox="0 0 46 49" width="46" xmlns="http://www.w3.org/2000/svg"><g fill="none" fill-rule="evenodd"><path d="m5.374 36.788 16.6-36.056 3.217 1.324 15.525 35.504-2.242 1.502-31.17-.648z" fill="#fff"/><path d="m28.09 24.376-5.351-11.246-.042.102v11.134l.256.009z" fill="#a6120d"/><path d="m22.696 1.78 16.577 35.51-5.655-.106-3.479-8.092-7.428-.008-.015.008v19.898l19.526-10.852 3.773-30.158-23.3-7.979z" fill="#a6120d"/><g fill="#dd1b16"><path d="m22.695.0L0 8.123l3.471 30.16L22.695 48.99v-19.898h-6.759l-3.178 7.981-5.91.11 15.847-35.403z"/><path d="m22.695 24.367v-11.133l-4.674 11.133z"/></g></g></svg>