<svg height="48" viewBox="0 0 48 48" width="48" xmlns="http://www.w3.org/2000/svg"><path d="m43.606 34.443c-5.975 7.962-18.712 5.275-26.914 5.662.0.0-1.448.08-2.908.32.0.0.554-.233 1.254-.48 5.748-2 8.462-2.388 11.95-4.182 6.562-3.334 13.09-10.67 14.417-18.285-2.494 7.336-10.09 13.604-17.004 16.165C19.666 35.39 11.11 37.09 11.11 37.09l-.347-.2c-5.822-2.835-6.002-15.438 4.582-19.5 4.668-1.78 9.069-.806 14.077-2 5.335-1.274 11.53-5.275 14.05-10.516 2.822 8.389 6.21 21.48.134 29.568m.107-32.136a22.33 22.33.0 0 1-2.581 4.575c-9.575-9.34-24.91-9.149-34.25.427-9.34 9.575-9.15 24.91.427 34.25l.533.466a2.074 2.074.0 1 1 2.918-.304l-.003.004a2.074 2.074.0 0 1-2.915.3l.36.32c10.223 8.616 25.495 7.311 34.11-2.912a24.207 24.207.0 0 0 5.635-13.88c.667-6.168-1.147-13.97-4.234-23.246" fill="#6db243" fill-rule="evenodd"/></svg>